<mxfile host="Electron" modified="2024-03-27T13:35:46.372Z" agent="Mozilla/5.0 (Windows NT 10.0; Win64; x64) AppleWebKit/537.36 (KHTML, like Gecko) draw.io/24.1.0 Chrome/120.0.6099.109 Electron/28.1.0 Safari/537.36" etag="DOZzjY9nSIynnbMrX24P" version="24.1.0" type="device">
  <diagram name="Page-1" id="kFrdMGKW_Bm0aay2mBpl">
    <mxGraphModel dx="708" dy="614" grid="1" gridSize="10" guides="1" tooltips="1" connect="1" arrows="1" fold="1" page="1" pageScale="1" pageWidth="827" pageHeight="1169" math="0" shadow="0">
      <root>
        <mxCell id="0" />
        <mxCell id="1" parent="0" />
        <mxCell id="s5FkPksweQhDaHEbAyrG-1" value="" style="shape=mxgraph.pid.vessels.jacketed_mixing_vessel;html=1;pointerEvents=1;align=center;verticalLabelPosition=bottom;verticalAlign=middle;dashed=0;strokeWidth=2;rounded=0;strokeColor=default;fontFamily=Helvetica;fontSize=11;fontColor=default;labelBackgroundColor=default;" vertex="1" parent="1">
          <mxGeometry x="70.0033333333333" y="70.3125" width="71.87619047619044" height="125.0625" as="geometry" />
        </mxCell>
        <mxCell id="s5FkPksweQhDaHEbAyrG-4" value="" style="shape=mxgraph.pid.vessels.tank;html=1;pointerEvents=1;align=center;verticalLabelPosition=bottom;verticalAlign=top;dashed=0;direction=south;strokeWidth=2;" vertex="1" parent="1">
          <mxGeometry x="575" y="100" width="95" height="20" as="geometry" />
        </mxCell>
        <mxCell id="s5FkPksweQhDaHEbAyrG-5" value="" style="shape=mxgraph.pid.vessels.reactor;html=1;pointerEvents=1;align=center;verticalLabelPosition=bottom;verticalAlign=top;dashed=0;direction=south;strokeWidth=2;" vertex="1" parent="1">
          <mxGeometry x="575" y="175.38" width="95" height="20" as="geometry" />
        </mxCell>
        <mxCell id="s5FkPksweQhDaHEbAyrG-10" style="edgeStyle=orthogonalEdgeStyle;rounded=0;orthogonalLoop=1;jettySize=auto;html=1;strokeWidth=2;strokeColor=default;align=center;verticalAlign=middle;fontFamily=Helvetica;fontSize=11;fontColor=default;labelBackgroundColor=default;endArrow=blockThin;endFill=1;entryX=0.5;entryY=1;entryDx=0;entryDy=0;entryPerimeter=0;" edge="1" parent="1" target="s5FkPksweQhDaHEbAyrG-4">
          <mxGeometry relative="1" as="geometry">
            <Array as="points">
              <mxPoint x="550" y="110" />
            </Array>
            <mxPoint x="550" y="110" as="sourcePoint" />
            <mxPoint x="538" y="140" as="targetPoint" />
          </mxGeometry>
        </mxCell>
        <mxCell id="s5FkPksweQhDaHEbAyrG-14" value="PFR" style="text;html=1;align=center;verticalAlign=middle;resizable=0;points=[];autosize=1;strokeColor=none;fillColor=none;fontFamily=IBM Plex sans;fontSize=16;" vertex="1" parent="1">
          <mxGeometry x="588.12" y="60" width="50" height="30" as="geometry" />
        </mxCell>
        <mxCell id="s5FkPksweQhDaHEbAyrG-15" value="PBR" style="text;html=1;align=center;verticalAlign=middle;resizable=0;points=[];autosize=1;strokeColor=none;fillColor=none;fontFamily=IBM Plex sans;fontSize=16;" vertex="1" parent="1">
          <mxGeometry x="597.5" y="195.68" width="50" height="30" as="geometry" />
        </mxCell>
        <mxCell id="s5FkPksweQhDaHEbAyrG-16" value="CSTR" style="text;html=1;align=center;verticalAlign=middle;resizable=0;points=[];autosize=1;strokeColor=none;fillColor=none;fontFamily=IBM Plex sans;fontSize=16;" vertex="1" parent="1">
          <mxGeometry x="266.25" y="195.68" width="60" height="30" as="geometry" />
        </mxCell>
        <mxCell id="s5FkPksweQhDaHEbAyrG-17" value="Batch&amp;nbsp;&lt;span style=&quot;background-color: initial;&quot;&gt;reactor&lt;/span&gt;" style="text;html=1;align=center;verticalAlign=middle;resizable=0;points=[];autosize=1;strokeColor=none;fillColor=none;fontFamily=IBM Plex sans;fontSize=16;" vertex="1" parent="1">
          <mxGeometry x="45.94" y="195.37" width="120" height="30" as="geometry" />
        </mxCell>
        <mxCell id="s5FkPksweQhDaHEbAyrG-18" style="edgeStyle=orthogonalEdgeStyle;rounded=0;orthogonalLoop=1;jettySize=auto;html=1;strokeWidth=2;strokeColor=default;align=center;verticalAlign=middle;fontFamily=Helvetica;fontSize=11;fontColor=default;labelBackgroundColor=default;endArrow=blockThin;endFill=1;entryX=0.5;entryY=1;entryDx=0;entryDy=0;entryPerimeter=0;" edge="1" parent="1">
          <mxGeometry relative="1" as="geometry">
            <Array as="points">
              <mxPoint x="670" y="109.9" />
            </Array>
            <mxPoint x="670" y="109.9" as="sourcePoint" />
            <mxPoint x="695" y="109.9" as="targetPoint" />
          </mxGeometry>
        </mxCell>
        <mxCell id="s5FkPksweQhDaHEbAyrG-19" style="edgeStyle=orthogonalEdgeStyle;rounded=0;orthogonalLoop=1;jettySize=auto;html=1;strokeWidth=2;strokeColor=default;align=center;verticalAlign=middle;fontFamily=Helvetica;fontSize=11;fontColor=default;labelBackgroundColor=default;endArrow=blockThin;endFill=1;entryX=0.5;entryY=1;entryDx=0;entryDy=0;entryPerimeter=0;" edge="1" parent="1">
          <mxGeometry relative="1" as="geometry">
            <Array as="points">
              <mxPoint x="670" y="185.28" />
            </Array>
            <mxPoint x="670" y="185.28" as="sourcePoint" />
            <mxPoint x="695" y="185.28" as="targetPoint" />
          </mxGeometry>
        </mxCell>
        <mxCell id="s5FkPksweQhDaHEbAyrG-20" style="edgeStyle=orthogonalEdgeStyle;rounded=0;orthogonalLoop=1;jettySize=auto;html=1;strokeWidth=2;strokeColor=default;align=center;verticalAlign=middle;fontFamily=Helvetica;fontSize=11;fontColor=default;labelBackgroundColor=default;endArrow=blockThin;endFill=1;entryX=0.5;entryY=1;entryDx=0;entryDy=0;entryPerimeter=0;" edge="1" parent="1">
          <mxGeometry relative="1" as="geometry">
            <Array as="points">
              <mxPoint x="550" y="185.28" />
            </Array>
            <mxPoint x="550" y="185.28" as="sourcePoint" />
            <mxPoint x="575" y="185.28" as="targetPoint" />
          </mxGeometry>
        </mxCell>
        <mxCell id="s5FkPksweQhDaHEbAyrG-21" value="" style="shape=mxgraph.pid.vessels.jacketed_mixing_vessel;html=1;pointerEvents=1;align=center;verticalLabelPosition=bottom;verticalAlign=middle;dashed=0;strokeWidth=2;rounded=0;strokeColor=default;fontFamily=Helvetica;fontSize=11;fontColor=default;labelBackgroundColor=default;" vertex="1" parent="1">
          <mxGeometry x="60.19333333333327" y="330.6225" width="71.87619047619044" height="125.0625" as="geometry" />
        </mxCell>
        <mxCell id="s5FkPksweQhDaHEbAyrG-22" style="edgeStyle=orthogonalEdgeStyle;rounded=0;orthogonalLoop=1;jettySize=auto;html=1;entryX=0.099;entryY=0.394;entryDx=0;entryDy=0;entryPerimeter=0;strokeWidth=2;strokeColor=default;align=center;verticalAlign=middle;fontFamily=Helvetica;fontSize=11;fontColor=default;labelBackgroundColor=default;endArrow=blockThin;endFill=1;" edge="1" target="s5FkPksweQhDaHEbAyrG-21" parent="1">
          <mxGeometry relative="1" as="geometry">
            <mxPoint x="30" y="380" as="sourcePoint" />
            <Array as="points">
              <mxPoint x="50" y="380" />
            </Array>
          </mxGeometry>
        </mxCell>
        <mxCell id="s5FkPksweQhDaHEbAyrG-23" style="edgeStyle=orthogonalEdgeStyle;rounded=0;orthogonalLoop=1;jettySize=auto;html=1;exitX=0.9;exitY=0.399;exitDx=0;exitDy=0;exitPerimeter=0;strokeWidth=2;strokeColor=default;align=center;verticalAlign=middle;fontFamily=Helvetica;fontSize=11;fontColor=default;labelBackgroundColor=default;endArrow=blockThin;endFill=1;" edge="1" parent="1" source="s5FkPksweQhDaHEbAyrG-21">
          <mxGeometry relative="1" as="geometry">
            <Array as="points" />
            <mxPoint x="124.93043809523806" y="407.465875" as="sourcePoint" />
            <mxPoint x="171.13" y="380.08" as="targetPoint" />
          </mxGeometry>
        </mxCell>
        <mxCell id="s5FkPksweQhDaHEbAyrG-24" value="CSTR with recycle" style="text;html=1;align=center;verticalAlign=middle;resizable=0;points=[];autosize=1;strokeColor=none;fillColor=none;fontFamily=IBM Plex sans;fontSize=16;" vertex="1" parent="1">
          <mxGeometry x="21.129999999999995" y="455.68" width="150" height="30" as="geometry" />
        </mxCell>
        <mxCell id="s5FkPksweQhDaHEbAyrG-26" style="edgeStyle=orthogonalEdgeStyle;rounded=0;orthogonalLoop=1;jettySize=auto;html=1;strokeWidth=2;strokeColor=#9F1D54;align=center;verticalAlign=middle;fontFamily=Helvetica;fontSize=11;fontColor=default;labelBackgroundColor=default;endArrow=blockThin;endFill=1;" edge="1" parent="1">
          <mxGeometry relative="1" as="geometry">
            <Array as="points">
              <mxPoint x="150" y="310" />
              <mxPoint x="40" y="310" />
            </Array>
            <mxPoint x="150" y="380" as="sourcePoint" />
            <mxPoint x="40" y="380" as="targetPoint" />
          </mxGeometry>
        </mxCell>
        <mxCell id="s5FkPksweQhDaHEbAyrG-28" value="" style="shape=mxgraph.pid.vessels.jacketed_mixing_vessel;html=1;pointerEvents=1;align=center;verticalLabelPosition=bottom;verticalAlign=middle;dashed=0;strokeWidth=2;rounded=0;strokeColor=default;fontFamily=Helvetica;fontSize=11;fontColor=default;labelBackgroundColor=default;" vertex="1" parent="1">
          <mxGeometry x="290.3133333333333" y="331.2425" width="71.87619047619044" height="125.0625" as="geometry" />
        </mxCell>
        <mxCell id="s5FkPksweQhDaHEbAyrG-29" style="edgeStyle=orthogonalEdgeStyle;rounded=0;orthogonalLoop=1;jettySize=auto;html=1;entryX=0.218;entryY=0.221;entryDx=0;entryDy=0;entryPerimeter=0;strokeWidth=2;strokeColor=#9F1D54;align=center;verticalAlign=middle;fontFamily=Helvetica;fontSize=11;fontColor=default;labelBackgroundColor=default;endArrow=blockThin;endFill=1;" edge="1" parent="1">
          <mxGeometry relative="1" as="geometry">
            <mxPoint x="270" y="320" as="sourcePoint" />
            <Array as="points">
              <mxPoint x="300" y="320" />
              <mxPoint x="306" y="320" />
            </Array>
            <mxPoint x="305.9823428571428" y="358.88131250000004" as="targetPoint" />
          </mxGeometry>
        </mxCell>
        <mxCell id="s5FkPksweQhDaHEbAyrG-30" style="edgeStyle=orthogonalEdgeStyle;rounded=0;orthogonalLoop=1;jettySize=auto;html=1;exitX=0.914;exitY=0.397;exitDx=0;exitDy=0;exitPerimeter=0;strokeWidth=2;strokeColor=default;align=center;verticalAlign=middle;fontFamily=Helvetica;fontSize=11;fontColor=default;labelBackgroundColor=default;endArrow=blockThin;endFill=1;entryX=0.103;entryY=0.398;entryDx=0;entryDy=0;entryPerimeter=0;" edge="1" parent="1" source="s5FkPksweQhDaHEbAyrG-28" target="s5FkPksweQhDaHEbAyrG-32">
          <mxGeometry relative="1" as="geometry">
            <Array as="points">
              <mxPoint x="415" y="381" />
            </Array>
            <mxPoint x="326.2704380952381" y="398.005875" as="sourcePoint" />
            <mxPoint x="402.784580952381" y="400.25700000000006" as="targetPoint" />
          </mxGeometry>
        </mxCell>
        <mxCell id="s5FkPksweQhDaHEbAyrG-31" value="CSTR in series" style="text;html=1;align=center;verticalAlign=middle;resizable=0;points=[];autosize=1;strokeColor=none;fillColor=none;fontFamily=IBM Plex sans;fontSize=16;" vertex="1" parent="1">
          <mxGeometry x="378.94" y="456.31" width="130" height="30" as="geometry" />
        </mxCell>
        <mxCell id="s5FkPksweQhDaHEbAyrG-32" value="" style="shape=mxgraph.pid.vessels.jacketed_mixing_vessel;html=1;pointerEvents=1;align=center;verticalLabelPosition=bottom;verticalAlign=middle;dashed=0;strokeWidth=2;rounded=0;strokeColor=default;fontFamily=Helvetica;fontSize=11;fontColor=default;labelBackgroundColor=default;" vertex="1" parent="1">
          <mxGeometry x="408" y="331.2425" width="71.87619047619044" height="125.0625" as="geometry" />
        </mxCell>
        <mxCell id="s5FkPksweQhDaHEbAyrG-33" value="" style="shape=mxgraph.pid.vessels.jacketed_mixing_vessel;html=1;pointerEvents=1;align=center;verticalLabelPosition=bottom;verticalAlign=middle;dashed=0;strokeWidth=2;rounded=0;strokeColor=default;fontFamily=Helvetica;fontSize=11;fontColor=default;labelBackgroundColor=default;" vertex="1" parent="1">
          <mxGeometry x="525.6233333333332" y="331.2425" width="71.87619047619044" height="125.0625" as="geometry" />
        </mxCell>
        <mxCell id="s5FkPksweQhDaHEbAyrG-35" style="edgeStyle=orthogonalEdgeStyle;rounded=0;orthogonalLoop=1;jettySize=auto;html=1;exitX=0.718;exitY=0.214;exitDx=0;exitDy=0;exitPerimeter=0;strokeWidth=2;strokeColor=default;align=center;verticalAlign=middle;fontFamily=Helvetica;fontSize=11;fontColor=default;labelBackgroundColor=default;endArrow=blockThin;endFill=1;" edge="1" parent="1">
          <mxGeometry relative="1" as="geometry">
            <Array as="points">
              <mxPoint x="579.12" y="330.62" />
              <mxPoint x="605.12" y="330.62" />
            </Array>
            <mxPoint x="579.0404380952381" y="358.005875" as="sourcePoint" />
            <mxPoint x="607.12" y="330.62" as="targetPoint" />
          </mxGeometry>
        </mxCell>
        <mxCell id="s5FkPksweQhDaHEbAyrG-36" style="edgeStyle=orthogonalEdgeStyle;rounded=0;orthogonalLoop=1;jettySize=auto;html=1;exitX=0.914;exitY=0.397;exitDx=0;exitDy=0;exitPerimeter=0;strokeWidth=2;strokeColor=default;align=center;verticalAlign=middle;fontFamily=Helvetica;fontSize=11;fontColor=default;labelBackgroundColor=default;endArrow=blockThin;endFill=1;entryX=0.103;entryY=0.398;entryDx=0;entryDy=0;entryPerimeter=0;" edge="1" parent="1">
          <mxGeometry relative="1" as="geometry">
            <Array as="points">
              <mxPoint x="532" y="380" />
            </Array>
            <mxPoint x="473" y="380" as="sourcePoint" />
            <mxPoint x="532" y="380" as="targetPoint" />
          </mxGeometry>
        </mxCell>
        <mxCell id="s5FkPksweQhDaHEbAyrG-37" style="edgeStyle=orthogonalEdgeStyle;rounded=0;orthogonalLoop=1;jettySize=auto;html=1;strokeWidth=2;strokeColor=default;align=center;verticalAlign=middle;fontFamily=Helvetica;fontSize=11;fontColor=default;labelBackgroundColor=default;endArrow=blockThin;endFill=1;entryX=0.103;entryY=0.398;entryDx=0;entryDy=0;entryPerimeter=0;" edge="1" parent="1">
          <mxGeometry relative="1" as="geometry">
            <Array as="points">
              <mxPoint x="297" y="380" />
            </Array>
            <mxPoint x="270" y="380" as="sourcePoint" />
            <mxPoint x="297" y="380" as="targetPoint" />
          </mxGeometry>
        </mxCell>
        <mxCell id="s5FkPksweQhDaHEbAyrG-38" style="edgeStyle=orthogonalEdgeStyle;rounded=0;orthogonalLoop=1;jettySize=auto;html=1;entryX=0.218;entryY=0.221;entryDx=0;entryDy=0;entryPerimeter=0;strokeWidth=2;strokeColor=#9F1D54;align=center;verticalAlign=middle;fontFamily=Helvetica;fontSize=11;fontColor=default;labelBackgroundColor=default;endArrow=blockThin;endFill=1;" edge="1" parent="1">
          <mxGeometry relative="1" as="geometry">
            <mxPoint x="300" y="320" as="sourcePoint" />
            <Array as="points">
              <mxPoint x="405" y="320" />
              <mxPoint x="421" y="320" />
            </Array>
            <mxPoint x="421" y="359.65" as="targetPoint" />
          </mxGeometry>
        </mxCell>
        <mxCell id="s5FkPksweQhDaHEbAyrG-39" style="edgeStyle=orthogonalEdgeStyle;rounded=0;orthogonalLoop=1;jettySize=auto;html=1;entryX=0.218;entryY=0.221;entryDx=0;entryDy=0;entryPerimeter=0;strokeWidth=2;strokeColor=#9F1D54;align=center;verticalAlign=middle;fontFamily=Helvetica;fontSize=11;fontColor=default;labelBackgroundColor=default;endArrow=blockThin;endFill=1;" edge="1" parent="1">
          <mxGeometry relative="1" as="geometry">
            <mxPoint x="420" y="320" as="sourcePoint" />
            <Array as="points">
              <mxPoint x="526" y="320" />
              <mxPoint x="542" y="320" />
            </Array>
            <mxPoint x="541.62" y="359.62" as="targetPoint" />
          </mxGeometry>
        </mxCell>
        <mxCell id="s5FkPksweQhDaHEbAyrG-40" value="A" style="text;html=1;align=center;verticalAlign=middle;resizable=0;points=[];autosize=1;strokeColor=none;fillColor=none;fontFamily=IBM Plex sans;fontSize=16;" vertex="1" parent="1">
          <mxGeometry x="260.31" y="350" width="30" height="30" as="geometry" />
        </mxCell>
        <mxCell id="s5FkPksweQhDaHEbAyrG-41" value="B" style="text;html=1;align=center;verticalAlign=middle;resizable=0;points=[];autosize=1;strokeColor=none;fillColor=none;fontFamily=IBM Plex sans;fontSize=16;" vertex="1" parent="1">
          <mxGeometry x="260.31" y="290" width="30" height="30" as="geometry" />
        </mxCell>
        <mxCell id="s5FkPksweQhDaHEbAyrG-42" value="D, U" style="text;html=1;align=center;verticalAlign=middle;resizable=0;points=[];autosize=1;strokeColor=none;fillColor=none;fontFamily=IBM Plex sans;fontSize=16;" vertex="1" parent="1">
          <mxGeometry x="570" y="300.62" width="50" height="30" as="geometry" />
        </mxCell>
        <mxCell id="s5FkPksweQhDaHEbAyrG-43" value="" style="shape=mxgraph.pid.vessels.jacketed_mixing_vessel;html=1;pointerEvents=1;align=center;verticalLabelPosition=bottom;verticalAlign=middle;dashed=0;strokeWidth=2;rounded=0;strokeColor=default;fontFamily=Helvetica;fontSize=11;fontColor=default;labelBackgroundColor=default;" vertex="1" parent="1">
          <mxGeometry x="70.00333333333327" y="611.2425000000001" width="71.87619047619044" height="125.0625" as="geometry" />
        </mxCell>
        <mxCell id="s5FkPksweQhDaHEbAyrG-44" style="edgeStyle=orthogonalEdgeStyle;rounded=0;orthogonalLoop=1;jettySize=auto;html=1;entryX=0.218;entryY=0.221;entryDx=0;entryDy=0;entryPerimeter=0;strokeWidth=2;strokeColor=#9F1D54;align=center;verticalAlign=middle;fontFamily=Helvetica;fontSize=11;fontColor=default;labelBackgroundColor=default;endArrow=blockThin;endFill=1;" edge="1" parent="1">
          <mxGeometry relative="1" as="geometry">
            <mxPoint x="49.69" y="600" as="sourcePoint" />
            <Array as="points">
              <mxPoint x="79.69" y="600" />
              <mxPoint x="85.69" y="600" />
            </Array>
            <mxPoint x="85.67234285714278" y="638.8813125" as="targetPoint" />
          </mxGeometry>
        </mxCell>
        <mxCell id="s5FkPksweQhDaHEbAyrG-45" style="edgeStyle=orthogonalEdgeStyle;rounded=0;orthogonalLoop=1;jettySize=auto;html=1;exitX=0.914;exitY=0.397;exitDx=0;exitDy=0;exitPerimeter=0;strokeWidth=2;strokeColor=default;align=center;verticalAlign=middle;fontFamily=Helvetica;fontSize=11;fontColor=default;labelBackgroundColor=default;endArrow=blockThin;endFill=1;entryX=0.103;entryY=0.398;entryDx=0;entryDy=0;entryPerimeter=0;" edge="1" source="s5FkPksweQhDaHEbAyrG-43" target="s5FkPksweQhDaHEbAyrG-47" parent="1">
          <mxGeometry relative="1" as="geometry">
            <Array as="points">
              <mxPoint x="194.69" y="661" />
            </Array>
            <mxPoint x="105.96043809523809" y="678.0058750000001" as="sourcePoint" />
            <mxPoint x="182.47458095238102" y="680.2570000000001" as="targetPoint" />
          </mxGeometry>
        </mxCell>
        <mxCell id="s5FkPksweQhDaHEbAyrG-46" value="CSTR in series" style="text;html=1;align=center;verticalAlign=middle;resizable=0;points=[];autosize=1;strokeColor=none;fillColor=none;fontFamily=IBM Plex sans;fontSize=16;" vertex="1" parent="1">
          <mxGeometry x="158.63" y="736.31" width="130" height="30" as="geometry" />
        </mxCell>
        <mxCell id="s5FkPksweQhDaHEbAyrG-47" value="" style="shape=mxgraph.pid.vessels.jacketed_mixing_vessel;html=1;pointerEvents=1;align=center;verticalLabelPosition=bottom;verticalAlign=middle;dashed=0;strokeWidth=2;rounded=0;strokeColor=default;fontFamily=Helvetica;fontSize=11;fontColor=default;labelBackgroundColor=default;" vertex="1" parent="1">
          <mxGeometry x="187.69" y="611.2425000000001" width="71.87619047619044" height="125.0625" as="geometry" />
        </mxCell>
        <mxCell id="s5FkPksweQhDaHEbAyrG-48" value="" style="shape=mxgraph.pid.vessels.jacketed_mixing_vessel;html=1;pointerEvents=1;align=center;verticalLabelPosition=bottom;verticalAlign=middle;dashed=0;strokeWidth=2;rounded=0;strokeColor=default;fontFamily=Helvetica;fontSize=11;fontColor=default;labelBackgroundColor=default;" vertex="1" parent="1">
          <mxGeometry x="305.3133333333332" y="611.2425000000001" width="71.87619047619044" height="125.0625" as="geometry" />
        </mxCell>
        <mxCell id="s5FkPksweQhDaHEbAyrG-49" style="edgeStyle=orthogonalEdgeStyle;rounded=0;orthogonalLoop=1;jettySize=auto;html=1;exitX=0.718;exitY=0.214;exitDx=0;exitDy=0;exitPerimeter=0;strokeWidth=2;strokeColor=default;align=center;verticalAlign=middle;fontFamily=Helvetica;fontSize=11;fontColor=default;labelBackgroundColor=default;endArrow=blockThin;endFill=1;" edge="1" parent="1">
          <mxGeometry relative="1" as="geometry">
            <Array as="points">
              <mxPoint x="358.81" y="610.62" />
              <mxPoint x="384.81" y="610.62" />
            </Array>
            <mxPoint x="358.73043809523807" y="638.0058750000001" as="sourcePoint" />
            <mxPoint x="386.81" y="610.62" as="targetPoint" />
          </mxGeometry>
        </mxCell>
        <mxCell id="s5FkPksweQhDaHEbAyrG-50" style="edgeStyle=orthogonalEdgeStyle;rounded=0;orthogonalLoop=1;jettySize=auto;html=1;exitX=0.914;exitY=0.397;exitDx=0;exitDy=0;exitPerimeter=0;strokeWidth=2;strokeColor=default;align=center;verticalAlign=middle;fontFamily=Helvetica;fontSize=11;fontColor=default;labelBackgroundColor=default;endArrow=blockThin;endFill=1;entryX=0.103;entryY=0.398;entryDx=0;entryDy=0;entryPerimeter=0;" edge="1" parent="1">
          <mxGeometry relative="1" as="geometry">
            <Array as="points">
              <mxPoint x="311.69" y="660" />
            </Array>
            <mxPoint x="252.69" y="660" as="sourcePoint" />
            <mxPoint x="311.69" y="660" as="targetPoint" />
          </mxGeometry>
        </mxCell>
        <mxCell id="s5FkPksweQhDaHEbAyrG-51" style="edgeStyle=orthogonalEdgeStyle;rounded=0;orthogonalLoop=1;jettySize=auto;html=1;strokeWidth=2;strokeColor=default;align=center;verticalAlign=middle;fontFamily=Helvetica;fontSize=11;fontColor=default;labelBackgroundColor=default;endArrow=blockThin;endFill=1;entryX=0.103;entryY=0.398;entryDx=0;entryDy=0;entryPerimeter=0;" edge="1" parent="1">
          <mxGeometry relative="1" as="geometry">
            <Array as="points">
              <mxPoint x="76.69" y="660" />
            </Array>
            <mxPoint x="49.69" y="660" as="sourcePoint" />
            <mxPoint x="76.69" y="660" as="targetPoint" />
          </mxGeometry>
        </mxCell>
        <mxCell id="s5FkPksweQhDaHEbAyrG-52" style="edgeStyle=orthogonalEdgeStyle;rounded=0;orthogonalLoop=1;jettySize=auto;html=1;entryX=0.218;entryY=0.221;entryDx=0;entryDy=0;entryPerimeter=0;strokeWidth=2;strokeColor=#9F1D54;align=center;verticalAlign=middle;fontFamily=Helvetica;fontSize=11;fontColor=default;labelBackgroundColor=default;endArrow=blockThin;endFill=1;" edge="1" parent="1">
          <mxGeometry relative="1" as="geometry">
            <mxPoint x="79.69" y="600" as="sourcePoint" />
            <Array as="points">
              <mxPoint x="184.69" y="600" />
              <mxPoint x="200.69" y="600" />
            </Array>
            <mxPoint x="200.69" y="639.65" as="targetPoint" />
          </mxGeometry>
        </mxCell>
        <mxCell id="s5FkPksweQhDaHEbAyrG-53" style="edgeStyle=orthogonalEdgeStyle;rounded=0;orthogonalLoop=1;jettySize=auto;html=1;entryX=0.218;entryY=0.221;entryDx=0;entryDy=0;entryPerimeter=0;strokeWidth=2;strokeColor=#9F1D54;align=center;verticalAlign=middle;fontFamily=Helvetica;fontSize=11;fontColor=default;labelBackgroundColor=default;endArrow=blockThin;endFill=1;" edge="1" parent="1">
          <mxGeometry relative="1" as="geometry">
            <mxPoint x="199.69" y="600" as="sourcePoint" />
            <Array as="points">
              <mxPoint x="305.69" y="600" />
              <mxPoint x="321.69" y="600" />
            </Array>
            <mxPoint x="321.31" y="639.62" as="targetPoint" />
          </mxGeometry>
        </mxCell>
        <mxCell id="s5FkPksweQhDaHEbAyrG-57" value="" style="shape=mxgraph.pid.vessels.tank;html=1;pointerEvents=1;align=center;verticalLabelPosition=bottom;verticalAlign=top;dashed=0;direction=south;strokeWidth=2;" vertex="1" parent="1">
          <mxGeometry x="550.62" y="630" width="95" height="20" as="geometry" />
        </mxCell>
        <mxCell id="s5FkPksweQhDaHEbAyrG-58" style="edgeStyle=orthogonalEdgeStyle;rounded=0;orthogonalLoop=1;jettySize=auto;html=1;strokeWidth=2;strokeColor=default;align=center;verticalAlign=middle;fontFamily=Helvetica;fontSize=11;fontColor=default;labelBackgroundColor=default;endArrow=blockThin;endFill=1;entryX=0.5;entryY=1;entryDx=0;entryDy=0;entryPerimeter=0;" edge="1" target="s5FkPksweQhDaHEbAyrG-57" parent="1">
          <mxGeometry relative="1" as="geometry">
            <Array as="points">
              <mxPoint x="525.62" y="640" />
            </Array>
            <mxPoint x="510" y="640" as="sourcePoint" />
            <mxPoint x="513.62" y="670" as="targetPoint" />
          </mxGeometry>
        </mxCell>
        <mxCell id="s5FkPksweQhDaHEbAyrG-59" value="PFR with recycle" style="text;html=1;align=center;verticalAlign=middle;resizable=0;points=[];autosize=1;strokeColor=none;fillColor=none;fontFamily=IBM Plex sans;fontSize=16;" vertex="1" parent="1">
          <mxGeometry x="528.12" y="706.31" width="140" height="30" as="geometry" />
        </mxCell>
        <mxCell id="s5FkPksweQhDaHEbAyrG-60" style="edgeStyle=orthogonalEdgeStyle;rounded=0;orthogonalLoop=1;jettySize=auto;html=1;strokeWidth=2;strokeColor=default;align=center;verticalAlign=middle;fontFamily=Helvetica;fontSize=11;fontColor=default;labelBackgroundColor=default;endArrow=blockThin;endFill=1;" edge="1" parent="1">
          <mxGeometry relative="1" as="geometry">
            <Array as="points">
              <mxPoint x="645.62" y="639.9" />
            </Array>
            <mxPoint x="645.62" y="639.9" as="sourcePoint" />
            <mxPoint x="690" y="640" as="targetPoint" />
          </mxGeometry>
        </mxCell>
        <mxCell id="s5FkPksweQhDaHEbAyrG-61" value="" style="shape=mxgraph.pid.heat_exchangers.shell_and_tube_heat_exchanger_1;html=1;pointerEvents=1;align=center;verticalLabelPosition=bottom;verticalAlign=top;dashed=0;strokeWidth=2;strokeColor=#9F1D54;" vertex="1" parent="1">
          <mxGeometry x="588.12" y="680" width="20" height="20" as="geometry" />
        </mxCell>
        <mxCell id="s5FkPksweQhDaHEbAyrG-62" style="edgeStyle=orthogonalEdgeStyle;rounded=0;orthogonalLoop=1;jettySize=auto;html=1;strokeWidth=2;strokeColor=#9F1D54;align=center;verticalAlign=middle;fontFamily=Helvetica;fontSize=11;fontColor=default;labelBackgroundColor=default;endArrow=blockThin;endFill=1;entryX=1;entryY=0.5;entryDx=0;entryDy=0;entryPerimeter=0;" edge="1" parent="1" target="s5FkPksweQhDaHEbAyrG-61">
          <mxGeometry relative="1" as="geometry">
            <Array as="points">
              <mxPoint x="660" y="690" />
            </Array>
            <mxPoint x="660" y="640" as="sourcePoint" />
            <mxPoint x="690" y="690.05" as="targetPoint" />
          </mxGeometry>
        </mxCell>
        <mxCell id="s5FkPksweQhDaHEbAyrG-63" style="edgeStyle=orthogonalEdgeStyle;rounded=0;orthogonalLoop=1;jettySize=auto;html=1;strokeWidth=2;strokeColor=#9F1D54;align=center;verticalAlign=middle;fontFamily=Helvetica;fontSize=11;fontColor=default;labelBackgroundColor=default;endArrow=blockThin;endFill=1;exitX=0;exitY=0.5;exitDx=0;exitDy=0;exitPerimeter=0;" edge="1" parent="1" source="s5FkPksweQhDaHEbAyrG-61">
          <mxGeometry relative="1" as="geometry">
            <Array as="points">
              <mxPoint x="530" y="690" />
            </Array>
            <mxPoint x="560.94" y="656.31" as="sourcePoint" />
            <mxPoint x="530" y="640" as="targetPoint" />
          </mxGeometry>
        </mxCell>
        <mxCell id="s5FkPksweQhDaHEbAyrG-64" value="" style="shape=mxgraph.pid.vessels.tank;html=1;pointerEvents=1;align=center;verticalLabelPosition=bottom;verticalAlign=top;dashed=0;direction=south;strokeWidth=2;" vertex="1" parent="1">
          <mxGeometry x="126.87" y="870" width="95" height="20" as="geometry" />
        </mxCell>
        <mxCell id="s5FkPksweQhDaHEbAyrG-65" style="edgeStyle=orthogonalEdgeStyle;rounded=0;orthogonalLoop=1;jettySize=auto;html=1;strokeWidth=2;strokeColor=default;align=center;verticalAlign=middle;fontFamily=Helvetica;fontSize=11;fontColor=default;labelBackgroundColor=default;endArrow=blockThin;endFill=1;entryX=0.5;entryY=1;entryDx=0;entryDy=0;entryPerimeter=0;" edge="1" target="s5FkPksweQhDaHEbAyrG-64" parent="1">
          <mxGeometry relative="1" as="geometry">
            <Array as="points">
              <mxPoint x="101.87" y="880" />
            </Array>
            <mxPoint x="90" y="880" as="sourcePoint" />
            <mxPoint x="89.87" y="910" as="targetPoint" />
          </mxGeometry>
        </mxCell>
        <mxCell id="s5FkPksweQhDaHEbAyrG-66" value="PFR with side stream" style="text;html=1;align=center;verticalAlign=middle;resizable=0;points=[];autosize=1;strokeColor=none;fillColor=none;fontFamily=IBM Plex sans;fontSize=16;" vertex="1" parent="1">
          <mxGeometry x="75" y="900" width="170" height="30" as="geometry" />
        </mxCell>
        <mxCell id="s5FkPksweQhDaHEbAyrG-67" style="edgeStyle=orthogonalEdgeStyle;rounded=0;orthogonalLoop=1;jettySize=auto;html=1;strokeWidth=2;strokeColor=default;align=center;verticalAlign=middle;fontFamily=Helvetica;fontSize=11;fontColor=default;labelBackgroundColor=default;endArrow=blockThin;endFill=1;" edge="1" parent="1">
          <mxGeometry relative="1" as="geometry">
            <Array as="points">
              <mxPoint x="221.87" y="879.9" />
            </Array>
            <mxPoint x="221.87" y="879.9" as="sourcePoint" />
            <mxPoint x="260" y="880" as="targetPoint" />
          </mxGeometry>
        </mxCell>
        <mxCell id="s5FkPksweQhDaHEbAyrG-70" style="edgeStyle=orthogonalEdgeStyle;rounded=0;orthogonalLoop=1;jettySize=auto;html=1;strokeWidth=2;strokeColor=#9F1D54;align=center;verticalAlign=middle;fontFamily=Helvetica;fontSize=11;fontColor=default;labelBackgroundColor=default;endArrow=blockThin;endFill=1;entryX=-0.025;entryY=0.137;entryDx=0;entryDy=0;entryPerimeter=0;" edge="1" parent="1" target="s5FkPksweQhDaHEbAyrG-64">
          <mxGeometry relative="1" as="geometry">
            <Array as="points">
              <mxPoint x="209" y="840" />
            </Array>
            <mxPoint x="90" y="840" as="sourcePoint" />
            <mxPoint x="83.76" y="790" as="targetPoint" />
          </mxGeometry>
        </mxCell>
        <mxCell id="s5FkPksweQhDaHEbAyrG-71" style="edgeStyle=orthogonalEdgeStyle;rounded=0;orthogonalLoop=1;jettySize=auto;html=1;strokeWidth=2;strokeColor=#9F1D54;align=center;verticalAlign=middle;fontFamily=Helvetica;fontSize=11;fontColor=default;labelBackgroundColor=default;endArrow=blockThin;endFill=1;entryX=-0.025;entryY=0.137;entryDx=0;entryDy=0;entryPerimeter=0;" edge="1" parent="1">
          <mxGeometry relative="1" as="geometry">
            <Array as="points">
              <mxPoint x="186.69" y="840" />
            </Array>
            <mxPoint x="187.69" y="840" as="sourcePoint" />
            <mxPoint x="186.69" y="870" as="targetPoint" />
          </mxGeometry>
        </mxCell>
        <mxCell id="s5FkPksweQhDaHEbAyrG-72" style="edgeStyle=orthogonalEdgeStyle;rounded=0;orthogonalLoop=1;jettySize=auto;html=1;strokeWidth=2;strokeColor=#9F1D54;align=center;verticalAlign=middle;fontFamily=Helvetica;fontSize=11;fontColor=default;labelBackgroundColor=default;endArrow=blockThin;endFill=1;entryX=-0.025;entryY=0.137;entryDx=0;entryDy=0;entryPerimeter=0;" edge="1" parent="1">
          <mxGeometry relative="1" as="geometry">
            <Array as="points">
              <mxPoint x="163.97" y="840" />
            </Array>
            <mxPoint x="164.97" y="840" as="sourcePoint" />
            <mxPoint x="163.97" y="870" as="targetPoint" />
          </mxGeometry>
        </mxCell>
        <mxCell id="s5FkPksweQhDaHEbAyrG-75" style="edgeStyle=orthogonalEdgeStyle;rounded=0;orthogonalLoop=1;jettySize=auto;html=1;strokeWidth=2;strokeColor=#9F1D54;align=center;verticalAlign=middle;fontFamily=Helvetica;fontSize=11;fontColor=default;labelBackgroundColor=default;endArrow=blockThin;endFill=1;entryX=-0.025;entryY=0.137;entryDx=0;entryDy=0;entryPerimeter=0;" edge="1" parent="1">
          <mxGeometry relative="1" as="geometry">
            <Array as="points">
              <mxPoint x="141.91" y="840" />
            </Array>
            <mxPoint x="142.91" y="840" as="sourcePoint" />
            <mxPoint x="141.91" y="870" as="targetPoint" />
          </mxGeometry>
        </mxCell>
        <mxCell id="s5FkPksweQhDaHEbAyrG-76" style="edgeStyle=orthogonalEdgeStyle;rounded=0;orthogonalLoop=1;jettySize=auto;html=1;entryX=0.099;entryY=0.394;entryDx=0;entryDy=0;entryPerimeter=0;strokeWidth=2;strokeColor=default;align=center;verticalAlign=middle;fontFamily=Helvetica;fontSize=11;fontColor=default;labelBackgroundColor=default;endArrow=blockThin;endFill=1;" edge="1" target="s5FkPksweQhDaHEbAyrG-77" parent="1">
          <mxGeometry relative="1" as="geometry">
            <mxPoint x="225.69" y="119.67999999999999" as="sourcePoint" />
            <Array as="points">
              <mxPoint x="245.69" y="119.67999999999999" />
            </Array>
          </mxGeometry>
        </mxCell>
        <mxCell id="s5FkPksweQhDaHEbAyrG-77" value="" style="shape=mxgraph.pid.vessels.jacketed_mixing_vessel;html=1;pointerEvents=1;align=center;verticalLabelPosition=bottom;verticalAlign=middle;dashed=0;strokeWidth=2;rounded=0;strokeColor=default;fontFamily=Helvetica;fontSize=11;fontColor=default;labelBackgroundColor=default;" vertex="1" parent="1">
          <mxGeometry x="255.88333333333327" y="70.3025" width="71.87619047619044" height="125.0625" as="geometry" />
        </mxCell>
        <mxCell id="s5FkPksweQhDaHEbAyrG-78" style="edgeStyle=orthogonalEdgeStyle;rounded=0;orthogonalLoop=1;jettySize=auto;html=1;exitX=0.9;exitY=0.399;exitDx=0;exitDy=0;exitPerimeter=0;strokeWidth=2;strokeColor=default;align=center;verticalAlign=middle;fontFamily=Helvetica;fontSize=11;fontColor=default;labelBackgroundColor=default;endArrow=blockThin;endFill=1;" edge="1" source="s5FkPksweQhDaHEbAyrG-77" parent="1">
          <mxGeometry relative="1" as="geometry">
            <Array as="points" />
            <mxPoint x="320.62043809523806" y="147.145875" as="sourcePoint" />
            <mxPoint x="366.82" y="119.75999999999998" as="targetPoint" />
          </mxGeometry>
        </mxCell>
      </root>
    </mxGraphModel>
  </diagram>
</mxfile>
